# xmcd CD database file
#
# Track frame offsets:
#	150
#	23989
#	41139
#	59096
#	76894
#	98723
#	114300
#	130424
#	149360
#	165071
#	180361
#	197779
#
# Disc length: 2853 seconds
#
# Revision: 0
# Processed by: cddbd v1.5.1PL0 Copyright (c) Steve Scherf et al.
# Submitted via: CDex 1.51
#
DISCID=9c0b230c
DTITLE=CASANOVA - All Beauty Must Die
DYEAR=2004
DGENRE=Hard Rock
TTITLE0=Psycho Lisa
TTITLE1=Dreamer
TTITLE2=Not Over You
TTITLE3=After The Love Goes
TTITLE4=Lying
TTITLE5=Shine
TTITLE6=Under My Skin
TTITLE7=Happy
TTITLE8=Would I
TTITLE9=Last Of THe Runaways
TTITLE10=On My Love
TTITLE11=The Guitar Man
EXTD=YEAR: 2004
EXTT0=
EXTT1=
EXTT2=
EXTT3=
EXTT4=
EXTT5=
EXTT6=
EXTT7=
EXTT8=
EXTT9=
EXTT10=
EXTT11=
PLAYORDER=
